<?xml version="1.0" standalone="no"?>
<!DOCTYPE svg PUBLIC "-//W3C//DTD SVG 20010904//EN"
 "http://www.w3.org/TR/2001/REC-SVG-20010904/DTD/svg10.dtd">
<svg version="1.0" xmlns="http://www.w3.org/2000/svg"
 width="512.000000pt" height="512.000000pt" viewBox="0 0 512.000000 512.000000"
 preserveAspectRatio="xMidYMid meet">
<metadata>
Created by potrace 1.16, written by Peter Selinger 2001-2019
</metadata>
<g transform="translate(0.000000,512.000000) scale(0.100000,-0.100000)"
fill="#000000" stroke="none">
<path d="M203 4958 c-174 -172 -196 -198 -191 -231 3 -19 32 5 192 163 103
102 192 193 197 203 8 14 5 17 -17 17 -21 0 -60 -33 -181 -152z"/>
<path d="M303 4858 c-140 -139 -264 -265 -275 -281 -10 -15 -18 -37 -16 -50 3
-18 49 23 292 263 158 157 292 293 297 303 8 14 5 17 -17 17 -22 0 -75 -47
-281 -252z"/>
<path d="M383 4737 c-312 -311 -373 -377 -373 -400 0 -19 4 -26 12 -21 8 5 9
2 4 -12 -32 -78 -34 -222 -3 -280 14 -28 14 -33 1 -53 -9 -12 -14 -31 -12 -42
l3 -21 25 20 25 20 34 -29 34 -28 -61 -66 c-41 -44 -62 -74 -62 -90 0 -14 3
-25 6 -25 4 0 41 34 84 76 l79 76 50 -13 51 -13 -135 -137 c-105 -106 -135
-143 -135 -163 0 -22 3 -25 18 -17 9 5 87 80 172 165 l155 156 64 0 65 0 -237
-238 c-192 -193 -237 -244 -237 -266 0 -22 3 -25 18 -17 9 5 132 125 272 265
l255 256 65 0 64 0 -337 -338 c-277 -278 -337 -343 -337 -365 0 -23 3 -26 18
-18 9 5 177 170 372 365 l355 356 65 0 64 0 -437 -438 c-363 -364 -437 -443
-437 -465 0 -23 3 -26 18 -18 9 5 222 215 472 465 l455 456 65 0 65 0 -538
-538 c-451 -451 -537 -542 -537 -565 0 -19 4 -26 12 -21 8 5 9 2 4 -12 -32
-78 -34 -222 -3 -280 14 -28 14 -33 1 -53 -9 -12 -14 -31 -12 -42 l3 -21 25
20 25 20 34 -29 34 -28 -61 -66 c-41 -44 -62 -74 -62 -90 0 -14 3 -25 6 -25 4
0 41 34 84 75 l77 75 51 -12 52 -11 -135 -138 c-105 -106 -135 -143 -135 -163
0 -22 3 -25 18 -17 9 5 87 80 172 165 l155 156 64 0 65 0 -237 -238 c-192
-193 -237 -244 -237 -266 0 -22 3 -25 18 -17 9 5 132 125 272 265 l255 256 65
0 64 0 -337 -338 c-277 -278 -337 -343 -337 -365 0 -23 3 -26 18 -18 9 5 177
170 372 365 l355 356 65 0 64 0 -437 -438 c-363 -364 -437 -443 -437 -465 0
-23 3 -26 18 -18 9 5 222 215 472 465 l455 456 65 0 65 0 -538 -538 c-451
-451 -537 -542 -537 -565 0 -19 4 -26 12 -21 8 5 9 2 4 -12 -32 -78 -34 -222
-3 -280 14 -28 14 -33 1 -53 -9 -12 -14 -31 -12 -42 l3 -21 25 20 25 20 34
-29 34 -28 -61 -66 c-41 -44 -62 -74 -62 -90 0 -14 3 -25 6 -25 4 0 41 34 84
75 l77 75 51 -12 52 -11 -135 -138 c-105 -106 -135 -143 -135 -163 0 -22 3
-25 17 -17 10 5 88 80 173 165 l155 156 64 0 65 0 -237 -238 c-192 -193 -237
-244 -237 -266 0 -22 3 -25 18 -17 9 5 132 125 272 265 l255 256 65 0 65 0
-313 -313 c-171 -172 -312 -316 -312 -320 0 -4 12 -7 27 -7 22 0 86 59 348
320 l321 320 64 0 65 0 -313 -313 c-171 -172 -312 -316 -312 -320 0 -4 12 -7
27 -7 22 0 86 59 348 320 l321 320 64 0 65 0 -313 -313 c-171 -172 -312 -316
-312 -320 0 -4 12 -7 27 -7 22 0 86 59 348 320 l321 320 64 0 65 0 -313 -313
c-171 -172 -312 -316 -312 -320 0 -4 12 -7 27 -7 22 0 86 59 348 320 l321 320
64 0 65 0 -313 -313 c-171 -172 -312 -316 -312 -320 0 -4 12 -7 27 -7 22 0 86
59 348 320 l321 320 64 0 65 0 -313 -313 c-171 -172 -312 -316 -312 -320 0 -4
12 -7 27 -7 22 0 86 59 348 320 l321 320 64 0 65 0 -313 -313 c-171 -172 -312
-316 -312 -320 0 -4 12 -7 27 -7 22 0 86 59 348 320 l321 320 64 0 65 0 -313
-313 c-171 -172 -312 -316 -312 -320 0 -4 12 -7 27 -7 22 0 86 59 348 320
l321 320 64 0 65 0 -313 -313 c-171 -172 -312 -316 -312 -320 0 -4 12 -7 27
-7 22 0 86 59 348 320 l321 320 64 0 65 0 -313 -313 c-171 -172 -312 -316
-312 -320 0 -4 12 -7 27 -7 22 0 86 59 348 320 l321 320 64 0 65 0 -313 -313
c-171 -172 -312 -316 -312 -320 0 -4 12 -7 27 -7 22 0 86 59 348 320 l321 320
64 0 65 0 -313 -313 c-171 -172 -312 -316 -312 -320 0 -4 12 -7 27 -7 22 0 86
59 348 320 l321 320 64 0 65 0 -313 -313 c-171 -172 -312 -316 -312 -320 0 -4
12 -7 27 -7 22 0 86 59 348 320 l321 320 64 0 65 0 -313 -313 c-171 -172 -312
-316 -312 -320 0 -4 12 -7 27 -7 22 0 86 59 348 320 l321 320 64 0 65 0 -313
-313 c-171 -172 -312 -316 -312 -320 0 -4 12 -7 27 -7 22 0 86 59 348 320
l321 320 64 0 65 0 -313 -313 c-171 -172 -312 -316 -312 -320 0 -4 12 -7 27
-7 22 0 86 59 348 320 l321 320 64 0 65 0 -313 -313 c-171 -172 -312 -316
-312 -320 0 -4 12 -7 27 -7 22 0 86 59 348 320 l321 320 64 0 65 0 -313 -313
c-171 -172 -312 -316 -312 -320 0 -4 12 -7 27 -7 22 0 86 59 348 320 l321 320
64 0 65 0 -313 -313 c-171 -172 -312 -316 -312 -320 0 -4 12 -7 27 -7 22 0 86
59 348 320 l321 320 64 0 65 0 -313 -313 c-171 -172 -312 -316 -312 -320 0 -4
12 -7 27 -7 22 0 86 59 348 320 l321 320 64 0 65 0 -313 -313 c-171 -172 -312
-316 -312 -320 0 -4 12 -7 27 -7 22 0 86 59 347 319 l321 319 67 4 68 3 -318
-319 c-267 -269 -313 -320 -295 -324 13 -2 35 6 50 17 16 11 200 192 409 403
l382 383 1 122 c1 113 -1 127 -24 173 l-26 51 26 34 c16 20 25 43 23 57 -3 22
-4 22 -43 -14 l-40 -36 -36 26 -37 27 79 82 c56 59 79 90 79 108 0 14 -3 25
-6 25 -4 0 -50 -43 -103 -95 l-96 -94 -58 6 -58 6 161 162 c126 128 160 168
160 189 0 22 -3 25 -17 17 -10 -5 -99 -91 -198 -190 l-180 -181 -64 0 -65 0
262 263 c213 215 262 269 262 291 0 22 -3 25 -17 17 -10 -5 -144 -136 -298
-290 l-280 -281 -65 0 -64 0 362 363 c299 300 362 368 362 390 0 23 -3 26 -17
18 -10 -5 -189 -181 -398 -390 l-380 -381 -65 0 -65 0 463 463 c384 385 462
468 462 490 0 23 -3 26 -17 18 -10 -5 -234 -226 -498 -490 l-480 -481 -65 0
-65 0 562 563 561 562 1 122 c1 113 -1 127 -24 173 l-26 51 26 34 c16 20 25
43 23 57 -3 22 -4 22 -43 -14 l-40 -36 -36 26 -37 27 79 82 c56 59 79 90 79
108 0 14 -3 25 -6 25 -4 0 -50 -43 -103 -95 l-96 -94 -58 6 -58 6 161 162
c126 128 160 168 160 189 0 22 -3 25 -17 17 -10 -5 -99 -91 -198 -190 l-180
-181 -64 0 -65 0 262 263 c213 215 262 269 262 291 0 22 -3 25 -17 17 -10 -5
-144 -136 -298 -290 l-280 -281 -65 0 -64 0 362 363 c299 300 362 368 362 390
0 23 -3 26 -17 18 -10 -5 -189 -181 -398 -390 l-380 -381 -65 0 -65 0 463 463
c384 385 462 468 462 490 0 23 -3 26 -17 18 -10 -5 -234 -226 -498 -490 l-480
-481 -65 0 -65 0 562 563 561 562 1 122 c1 113 -1 127 -24 173 l-26 51 26 34
c16 20 25 43 23 57 -3 22 -4 22 -43 -14 l-40 -36 -36 26 -37 27 79 82 c56 59
79 90 79 108 0 14 -3 25 -6 25 -4 0 -50 -43 -103 -95 l-96 -94 -58 6 -58 6
161 162 c126 128 160 168 160 189 0 22 -3 25 -17 17 -10 -5 -99 -91 -198 -190
l-180 -181 -64 0 -65 0 262 263 c213 215 262 269 262 291 0 22 -3 25 -17 17
-10 -5 -144 -136 -298 -290 l-280 -281 -65 0 -65 0 308 308 c169 169 307 311
307 315 0 4 -12 7 -27 7 -22 0 -85 -58 -343 -315 l-316 -315 -64 0 -65 0 308
308 c169 169 307 311 307 315 0 4 -12 7 -27 7 -22 0 -85 -58 -343 -315 l-316
-315 -64 0 -65 0 308 308 c169 169 307 311 307 315 0 4 -12 7 -27 7 -22 0 -85
-58 -343 -315 l-316 -315 -64 0 -65 0 308 308 c169 169 307 311 307 315 0 4
-12 7 -27 7 -22 0 -85 -58 -343 -315 l-316 -315 -64 0 -65 0 308 308 c169 169
307 311 307 315 0 4 -12 7 -27 7 -22 0 -85 -58 -343 -315 l-316 -315 -64 0
-65 0 308 308 c169 169 307 311 307 315 0 4 -12 7 -27 7 -22 0 -85 -58 -343
-315 l-316 -315 -64 0 -65 0 308 308 c169 169 307 311 307 315 0 4 -12 7 -27
7 -22 0 -85 -58 -343 -315 l-316 -315 -64 0 -65 0 308 308 c169 169 307 311
307 315 0 4 -12 7 -27 7 -22 0 -85 -58 -343 -315 l-316 -315 -64 0 -65 0 308
308 c169 169 307 311 307 315 0 4 -12 7 -27 7 -22 0 -85 -58 -343 -315 l-316
-315 -64 0 -65 0 308 308 c169 169 307 311 307 315 0 4 -12 7 -27 7 -22 0 -85
-58 -343 -315 l-316 -315 -64 0 -65 0 308 308 c169 169 307 311 307 315 0 4
-12 7 -27 7 -22 0 -85 -58 -343 -315 l-316 -315 -64 0 -65 0 308 308 c169 169
307 311 307 315 0 4 -12 7 -27 7 -22 0 -85 -58 -343 -315 l-316 -315 -64 0
-65 0 308 308 c169 169 307 311 307 315 0 4 -12 7 -27 7 -22 0 -85 -58 -343
-315 l-316 -315 -64 0 -65 0 308 308 c169 169 307 311 307 315 0 4 -12 7 -27
7 -22 0 -85 -58 -343 -315 l-316 -315 -64 0 -65 0 308 308 c169 169 307 311
307 315 0 4 -12 7 -27 7 -22 0 -85 -58 -343 -315 l-316 -315 -64 0 -65 0 308
308 c169 169 307 311 307 315 0 4 -12 7 -27 7 -22 0 -85 -58 -343 -315 l-316
-315 -64 0 -65 0 308 308 c169 169 307 311 307 315 0 4 -12 7 -27 7 -22 0 -85
-58 -343 -315 l-316 -315 -64 0 -65 0 308 308 c169 169 307 311 307 315 0 4
-12 7 -27 7 -22 0 -85 -58 -343 -315 l-316 -315 -64 0 -65 0 308 308 c169 169
307 311 307 315 0 4 -12 7 -27 7 -22 0 -85 -58 -343 -315 l-316 -315 -64 0
-65 0 308 308 c169 169 307 311 307 315 0 4 -12 7 -27 7 -22 0 -85 -58 -343
-315 l-316 -315 -64 0 -65 0 308 308 c169 169 307 311 307 315 0 4 -12 7 -27
7 -22 0 -85 -58 -343 -315 -307 -306 -317 -315 -355 -315 -22 -1 -58 -7 -79
-15 -34 -12 9 35 282 308 177 178 322 326 322 330 0 4 -12 7 -27 7 -23 0 -92
-65 -400 -373z m4027 -1372 l-485 -485 -65 0 -65 0 480 480 479 479 66 4 c36
2 67 4 70 5 3 1 -213 -216 -480 -483z m-3605 -5 c-472 -472 -481 -480 -520
-480 -22 -1 -58 -7 -79 -15 -33 -12 41 67 455 481 l494 494 65 0 65 0 -480
-480z m200 0 l-480 -480 -65 0 -65 0 480 480 480 480 65 0 65 0 -480 -480z
m200 0 l-480 -480 -65 0 -65 0 480 480 480 480 65 0 65 0 -480 -480z m200 0
l-480 -480 -65 0 -65 0 480 480 480 480 65 0 65 0 -480 -480z m200 0 l-480
-480 -65 0 -65 0 480 480 480 480 65 0 65 0 -480 -480z m200 0 l-480 -480 -65
0 -65 0 480 480 480 480 65 0 65 0 -480 -480z m200 0 l-480 -480 -65 0 -65 0
480 480 480 480 65 0 65 0 -480 -480z m200 0 l-480 -480 -65 0 -65 0 480 480
480 480 65 0 65 0 -480 -480z m200 0 l-480 -480 -65 0 -65 0 480 480 480 480
65 0 65 0 -480 -480z m200 0 l-480 -480 -65 0 -65 0 480 480 480 480 65 0 65
0 -480 -480z m200 0 l-480 -480 -65 0 -65 0 480 480 480 480 65 0 65 0 -480
-480z m200 0 l-480 -480 -65 0 -65 0 480 480 480 480 65 0 65 0 -480 -480z
m200 0 l-480 -480 -65 0 -65 0 480 480 480 480 65 0 65 0 -480 -480z m200 0
l-480 -480 -65 0 -65 0 480 480 480 480 65 0 65 0 -480 -480z m200 0 l-480
-480 -65 0 -65 0 480 480 480 480 65 0 65 0 -480 -480z m200 0 l-480 -480 -65
0 -65 0 480 480 480 480 65 0 65 0 -480 -480z m200 0 l-480 -480 -65 0 -65 0
480 480 480 480 65 0 65 0 -480 -480z m200 0 l-480 -480 -65 0 -65 0 480 480
480 480 65 0 65 0 -480 -480z m205 -1595 l-485 -485 -65 0 -65 0 480 480 479
479 66 4 c36 2 67 4 70 5 3 1 -213 -216 -480 -483z m-3605 -5 c-472 -472 -481
-480 -520 -480 -22 -1 -58 -7 -79 -15 -33 -12 41 67 455 481 l494 494 65 0 65
0 -480 -480z m200 0 l-480 -480 -65 0 -65 0 480 480 480 480 65 0 65 0 -480
-480z m200 0 l-480 -480 -65 0 -65 0 480 480 480 480 65 0 65 0 -480 -480z
m200 0 l-480 -480 -65 0 -65 0 480 480 480 480 65 0 65 0 -480 -480z m200 0
l-480 -480 -65 0 -65 0 480 480 480 480 65 0 65 0 -480 -480z m200 0 l-480
-480 -65 0 -65 0 480 480 480 480 65 0 65 0 -480 -480z m200 0 l-480 -480 -65
0 -65 0 480 480 480 480 65 0 65 0 -480 -480z m200 0 l-480 -480 -65 0 -65 0
480 480 480 480 65 0 65 0 -480 -480z m200 0 l-480 -480 -65 0 -65 0 480 480
480 480 65 0 65 0 -480 -480z m200 0 l-480 -480 -65 0 -65 0 480 480 480 480
65 0 65 0 -480 -480z m200 0 l-480 -480 -65 0 -65 0 480 480 480 480 65 0 65
0 -480 -480z m200 0 l-480 -480 -65 0 -65 0 480 480 480 480 65 0 65 0 -480
-480z m200 0 l-480 -480 -65 0 -65 0 480 480 480 480 65 0 65 0 -480 -480z
m200 0 l-480 -480 -65 0 -65 0 480 480 480 480 65 0 65 0 -480 -480z m200 0
l-480 -480 -65 0 -65 0 480 480 480 480 65 0 65 0 -480 -480z m200 0 l-480
-480 -65 0 -65 0 480 480 480 480 65 0 65 0 -480 -480z m200 0 l-480 -480 -65
0 -65 0 480 480 480 480 65 0 65 0 -480 -480z m200 0 l-480 -480 -65 0 -65 0
480 480 480 480 65 0 65 0 -480 -480z"/>
<path d="M4796 350 c-174 -173 -322 -323 -327 -332 -8 -15 -5 -18 17 -18 23 0
80 52 312 282 156 156 293 295 303 311 11 15 19 37 17 50 -4 18 -54 -28 -322
-293z"/>
<path d="M4896 250 c-119 -118 -222 -223 -227 -232 -8 -15 -5 -18 17 -18 21 0
65 37 211 183 205 202 226 227 221 260 -3 19 -37 -11 -222 -193z"/>
<path d="M4996 150 c-136 -133 -149 -150 -111 -150 18 0 49 23 111 82 102 98
127 130 122 161 -3 19 -19 7 -122 -93z"/>
</g>
</svg>
